<svg id="Header" xmlns="http://www.w3.org/2000/svg" width="87.949" height="22.535" viewBox="0 0 87.949 22.535">
    <g id="Asset-13" transform="translate(0)">
        <path id="Shape" d="M52.2,36.729A13.5,13.5,0,0,1,51,40.2a7.88,7.88,0,0,1-1.9,2.47,7.645,7.645,0,0,1-2.7,1.448,12.671,12.671,0,0,1-3.663.511,12.16,12.16,0,0,1-5.409-1.15c-.128-.064-.256-.256-.128-.362l1.32-3.109.192-.17h.256c.554.234,1.129.426,1.7.618a9.413,9.413,0,0,0,2.577.319,4.311,4.311,0,0,0,2.96-.894,3.706,3.706,0,0,0,1.32-2.257l.128-.575a9.944,9.944,0,0,1-1.32.511,5.643,5.643,0,0,1-1.448.192,6.092,6.092,0,0,1-2.513-.447,4.246,4.246,0,0,1-1.7-1.256,5.473,5.473,0,0,1-1.022-1.9,7.56,7.56,0,0,1-.319-2.406,9.456,9.456,0,0,1,.894-4.153,8.132,8.132,0,0,1,2.151-3.024,9.051,9.051,0,0,1,3.28-1.831,11.585,11.585,0,0,1,3.9-.639,15.546,15.546,0,0,1,2.96.319,12.5,12.5,0,0,1,2.6.894.277.277,0,0,1,.256.3Zm-2-10.648a9.541,9.541,0,0,0-1.32-.128,4.311,4.311,0,0,0-2.087.447,3.982,3.982,0,0,0-1.576,1.129,4.664,4.664,0,0,0-1.022,1.7,6.6,6.6,0,0,0-.362,2.151,5.047,5.047,0,0,0,.064,1,3.194,3.194,0,0,0,.3.831,1.661,1.661,0,0,0,.7.554,2.726,2.726,0,0,0,1.065.192,8.987,8.987,0,0,0,1.15-.128,3.706,3.706,0,0,0,1.32-.681Z" transform="translate(-37.151 -22.097)" fill="#1e266d"></path>
        <path id="Path" d="M131.272,26.439a.3.3,0,0,1-.362.192,5.324,5.324,0,0,1-.958-.256,11.181,11.181,0,0,0-1.768-.128,4.621,4.621,0,0,0-.937.064h0a1.256,1.256,0,0,0-1.065.937l-2.79,11.543a.426.426,0,0,1-.319.256h-3.961a.341.341,0,0,1-.256-.128.383.383,0,0,1-.064-.256l2.96-12.224a4.983,4.983,0,0,1,3.6-3.6h.064a13.864,13.864,0,0,1,3.727-.447,15.674,15.674,0,0,1,1.7.128,9.434,9.434,0,0,1,1.384.383q.085,0,.192.192c.064.128.064.192,0,.256Z" transform="translate(-101.404 -22.328)" fill="#1e266d"></path>
        <path id="Shape-2" data-name="Shape" d="M176.214,32.448a11.479,11.479,0,0,1,.681-3.855,10.9,10.9,0,0,1,1.959-3.28,10.435,10.435,0,0,1,3.088-2.321,9.115,9.115,0,0,1,4.046-.894,6.9,6.9,0,0,1,2,.319,5.6,5.6,0,0,1,1.64.894,4.393,4.393,0,0,1,1.384,3.407,5.559,5.559,0,0,1-.745,2.96,5.984,5.984,0,0,1-2.151,1.959,10.414,10.414,0,0,1-3.28,1.065,20.828,20.828,0,0,1-4.089.319,2.585,2.585,0,0,0,.937,1.831,3.839,3.839,0,0,0,2.343.554,10.627,10.627,0,0,0,2-.192,8.625,8.625,0,0,0,1.6-.362.362.362,0,0,1,.234.064.3.3,0,0,1,.128.234l.256,2.981a.341.341,0,0,1-.192.3,10.626,10.626,0,0,1-1.959.511,14.652,14.652,0,0,1-2.9.256,8.114,8.114,0,0,1-3.216-.575,5.722,5.722,0,0,1-2.13-1.448,5.857,5.857,0,0,1-1.214-2.151,5.09,5.09,0,0,1-.426-2.577Zm8.944-6.687a3.94,3.94,0,0,0-2.768,1.129,5.415,5.415,0,0,0-1.576,2.981,17.9,17.9,0,0,0,3.088-.319,7.858,7.858,0,0,0,1.831-.639,2.321,2.321,0,0,0,.873-.809,1.47,1.47,0,0,0,.256-.894c0-.937-.575-1.448-1.7-1.448Z" transform="translate(-146.581 -22.096)" fill="#1e266d"></path>
        <path id="Shape-3" data-name="Shape" d="M254.666,28.849a10.542,10.542,0,0,1-.767,4.11,9.541,9.541,0,0,1-2.087,3.216,8.689,8.689,0,0,1-3.152,2.13,10.265,10.265,0,0,1-4.025.767,11.522,11.522,0,0,1-2.087-.192l-1.32,5.367a.426.426,0,0,1-.319.256H236.99a.319.319,0,0,1-.234-.128.383.383,0,0,1-.064-.256l4.983-20.806c0-.128.106-.192.17-.256a21.658,21.658,0,0,1,6.133-.958,8.263,8.263,0,0,1,2.96.511,5.516,5.516,0,0,1,3.28,3.6,7.645,7.645,0,0,1,.447,2.641Zm-11.244,6.368a7.347,7.347,0,0,0,1.342.128,5.3,5.3,0,0,0,2.194-.426,5.2,5.2,0,0,0,1.7-1.278,6.346,6.346,0,0,0,1.086-1.938,8.454,8.454,0,0,0,.362-2.47,4.578,4.578,0,0,0-.554-2.279,2.226,2.226,0,0,0-2.023-.937,8.476,8.476,0,0,0-1.831.192Z" transform="translate(-194.196 -22.097)" fill="#1e266d"></path>
        <path id="Path-2" data-name="Path" d="M323.687,35.533a3.463,3.463,0,0,0,2.151-.447,1.274,1.274,0,0,0,.575-.937.959.959,0,0,0-.128-.575.809.809,0,0,0-.383-.426,2.641,2.641,0,0,0-.7-.447c-.3-.128-.618-.319-1.129-.575a6.218,6.218,0,0,1-1.448-.745,5.132,5.132,0,0,1-1.193-.958,4.047,4.047,0,0,1-.831-1.256,4.153,4.153,0,0,1-.319-1.64,4.962,4.962,0,0,1,1.831-3.961c1.214-1.022,3.024-1.469,5.367-1.469a10.392,10.392,0,0,1,2.96.383,9.051,9.051,0,0,1,1.831.7.3.3,0,0,1,.128.426l-1.32,2.854-.192.192h-.256a8.859,8.859,0,0,0-1.384-.511,7.049,7.049,0,0,0-2.023-.319,3.109,3.109,0,0,0-.809.064,3.365,3.365,0,0,0-.767.192,1.022,1.022,0,0,0-.575.447,1.491,1.491,0,0,0-.17.745,1.107,1.107,0,0,0,.49.958l1.32.745c.831.383,1.469.767,2.023,1.086a3.727,3.727,0,0,1,1.256,1.065,3.514,3.514,0,0,1,.7,1.256,6.411,6.411,0,0,1,.192,1.64,4.2,4.2,0,0,1-.447,1.959,4.131,4.131,0,0,1-1.32,1.7,6.972,6.972,0,0,1-2.279,1.193,10.082,10.082,0,0,1-3.344.447c-.745,0-1.448-.064-2.194-.128a7.88,7.88,0,0,1-1.7-.383,9.135,9.135,0,0,1-1.256-.511l-.511-.234a.3.3,0,0,1-.128-.383l1.32-2.96.192-.192c.064-.064.192,0,.256,0a10.007,10.007,0,0,0,1.32.618A14.588,14.588,0,0,0,323.687,35.533Z" transform="translate(-257.935 -22.094)" fill="#1e266d"></path>
        <path id="Path-3" data-name="Path" d="M398.372,26.442c-.064.128-.17.256-.362.192a5.324,5.324,0,0,1-.958-.256,11.181,11.181,0,0,0-1.768-.128,4.621,4.621,0,0,0-.937.064h0a1.256,1.256,0,0,0-1.065.937l-2.79,11.479a.426.426,0,0,1-.319.256h-3.961a.341.341,0,0,1-.256-.128.384.384,0,0,1-.064-.256l2.96-12.224a4.983,4.983,0,0,1,3.6-3.6h.064a16.313,16.313,0,0,1,3.727-.383,15.675,15.675,0,0,1,1.7.128,11.712,11.712,0,0,1,1.384.319q.107,0,.192.192a.192.192,0,0,1,0,.256Z" transform="translate(-311.622 -22.33)" fill="#1e266d"></path>
    </g>
</svg>